<?xml version="1.0" encoding="UTF-8"?>
<svg xmlns="http://www.w3.org/2000/svg" width="1000" height="1000" viewBox="0 0 1000 1000">
  <title>algorand algo logo, Z00Z locked cross-chain variant</title>
  <metadata>Z00Z gold-ring marker for a locked or cross-chain coin.</metadata>
  <defs>
    <linearGradient id="z00z-gold-top" x1="30" y1="244" x2="970" y2="0" gradientUnits="userSpaceOnUse">
      <stop offset="0" stop-color="#B86B00"/>
      <stop offset="0.48" stop-color="#FCA311"/>
      <stop offset="1" stop-color="#FFE08A"/>
    </linearGradient>
    <linearGradient id="z00z-gold-middle" x1="970" y1="622" x2="30" y2="372" gradientUnits="userSpaceOnUse">
      <stop offset="0" stop-color="#C77600"/>
      <stop offset="0.5" stop-color="#FCA311"/>
      <stop offset="1" stop-color="#FFD166"/>
    </linearGradient>
    <linearGradient id="z00z-gold-bottom" x1="30" y1="1000" x2="970" y2="751" gradientUnits="userSpaceOnUse">
      <stop offset="0" stop-color="#9D5900"/>
      <stop offset="0.5" stop-color="#FCA311"/>
      <stop offset="1" stop-color="#FFE6A3"/>
    </linearGradient>
    <filter id="z00z-ring-shadow" x="-8%" y="-8%" width="116%" height="116%" color-interpolation-filters="sRGB">
      <feDropShadow dx="0" dy="7" stdDeviation="6" flood-color="#9D5900" flood-opacity="0.62"/>
    </filter>
  </defs>
  <g id="base-coin">
    <svg id="Layer_1" data-name="Layer 1" xmlns="http://www.w3.org/2000/svg" viewBox="-0.2 0 113.4 113.4" width="600" height="600" x="200" y="200"><title>algorand-algo-logo</title><polygon points="19.6 113.4 36 85 52.4 56.7 68.7 28.3 71.4 23.8 72.6 28.3 77.6 47 72 56.7 55.6 85 39.3 113.4 58.9 113.4 75.3 85 83.8 70.3 87.8 85 95.4 113.4 113 113.4 105.4 85 97.8 56.7 95.8 49.4 108 28.3 90.2 28.3 89.6 26.2 83.4 3 82.6 0 65.5 0 65.1 0.6 49.1 28.3 32.7 56.7 16.4 85 0 113.4 19.6 113.4"/></svg>
  </g>
  <g id="z00z-cross-chain-ring" fill="none" filter="url(#z00z-ring-shadow)">
    <circle cx="500" cy="500" r="476" stroke="url(#z00z-gold-bottom)" stroke-width="24"/>
    <circle cx="500" cy="500" r="456" stroke="url(#z00z-gold-top)" stroke-width="32"/>
    <circle cx="500" cy="500" r="486" stroke="url(#z00z-gold-middle)" stroke-width="4"/>
    <circle cx="500" cy="500" r="441" stroke="url(#z00z-gold-middle)" stroke-width="4"/>
  </g>
</svg>
