<?xml version="1.0" encoding="UTF-8"?>
<svg xmlns="http://www.w3.org/2000/svg" width="1000" height="1000" viewBox="0 0 1000 1000">
  <title>avalanche avax logo, Z00Z locked cross-chain variant</title>
  <metadata>Z00Z gold-ring marker for a locked or cross-chain coin.</metadata>
  <defs>
    <linearGradient id="z00z-gold-top" x1="30" y1="244" x2="970" y2="0" gradientUnits="userSpaceOnUse">
      <stop offset="0" stop-color="#B86B00"/>
      <stop offset="0.48" stop-color="#FCA311"/>
      <stop offset="1" stop-color="#FFE08A"/>
    </linearGradient>
    <linearGradient id="z00z-gold-middle" x1="970" y1="622" x2="30" y2="372" gradientUnits="userSpaceOnUse">
      <stop offset="0" stop-color="#C77600"/>
      <stop offset="0.5" stop-color="#FCA311"/>
      <stop offset="1" stop-color="#FFD166"/>
    </linearGradient>
    <linearGradient id="z00z-gold-bottom" x1="30" y1="1000" x2="970" y2="751" gradientUnits="userSpaceOnUse">
      <stop offset="0" stop-color="#9D5900"/>
      <stop offset="0.5" stop-color="#FCA311"/>
      <stop offset="1" stop-color="#FFE6A3"/>
    </linearGradient>
    <filter id="z00z-ring-shadow" x="-8%" y="-8%" width="116%" height="116%" color-interpolation-filters="sRGB">
      <feDropShadow dx="0" dy="7" stdDeviation="6" flood-color="#9D5900" flood-opacity="0.62"/>
    </filter>
  </defs>
  <g id="base-coin">
    <svg width="820" height="820" viewBox="0.252 0.752 1502.496 1502.496" fill="none" xmlns="http://www.w3.org/2000/svg" x="90" y="90">
    <rect x="287" y="258" width="928" height="844" fill="white"/>
    <path fill-rule="evenodd" clip-rule="evenodd" d="M1502.5 752C1502.5 1166.77 1166.27 1503 751.5 1503C336.734 1503 0.5 1166.77 0.5 752C0.5 337.234 336.734 1 751.5 1C1166.27 1 1502.5 337.234 1502.5 752ZM538.688 1050.86H392.94C362.314 1050.86 347.186 1050.86 337.962 1044.96C327.999 1038.5 321.911 1027.8 321.173 1015.99C320.619 1005.11 328.184 991.822 343.312 965.255L703.182 330.935C718.495 303.999 726.243 290.531 736.021 285.55C746.537 280.2 759.083 280.2 769.599 285.55C779.377 290.531 787.126 303.999 802.438 330.935L876.42 460.079L876.797 460.738C893.336 489.635 901.723 504.289 905.385 519.669C909.443 536.458 909.443 554.169 905.385 570.958C901.695 586.455 893.393 601.215 876.604 630.549L687.573 964.702L687.084 965.558C670.436 994.693 661.999 1009.46 650.306 1020.6C637.576 1032.78 622.263 1041.63 605.474 1046.62C590.161 1050.86 573.004 1050.86 538.688 1050.86ZM906.75 1050.86H1115.59C1146.4 1050.86 1161.9 1050.86 1171.13 1044.78C1181.09 1038.32 1187.36 1027.43 1187.92 1015.63C1188.45 1005.1 1181.05 992.33 1166.55 967.307C1166.05 966.455 1165.55 965.588 1165.04 964.706L1060.43 785.75L1059.24 783.735C1044.54 758.877 1037.12 746.324 1027.59 741.472C1017.08 736.121 1004.71 736.121 994.199 741.472C984.605 746.453 976.857 759.552 961.544 785.934L857.306 964.891L856.949 965.507C841.69 991.847 834.064 1005.01 834.614 1015.81C835.352 1027.62 841.44 1038.5 851.402 1044.96C860.443 1050.86 875.94 1050.86 906.75 1050.86Z" fill="#E84142"/>
    </svg>
  </g>
  <g id="z00z-cross-chain-ring" fill="none" filter="url(#z00z-ring-shadow)">
    <circle cx="500" cy="500" r="476" stroke="url(#z00z-gold-bottom)" stroke-width="24"/>
    <circle cx="500" cy="500" r="456" stroke="url(#z00z-gold-top)" stroke-width="32"/>
    <circle cx="500" cy="500" r="486" stroke="url(#z00z-gold-middle)" stroke-width="4"/>
    <circle cx="500" cy="500" r="441" stroke="url(#z00z-gold-middle)" stroke-width="4"/>
  </g>
</svg>
