<?xml version="1.0" encoding="UTF-8"?>
<svg xmlns="http://www.w3.org/2000/svg" width="1000" height="1000" viewBox="0 0 1000 1000">
  <title>solana sol logo, Z00Z locked cross-chain variant</title>
  <metadata>Z00Z gold-ring marker for a locked or cross-chain coin.</metadata>
  <defs>
    <linearGradient id="z00z-gold-top" x1="30" y1="244" x2="970" y2="0" gradientUnits="userSpaceOnUse">
      <stop offset="0" stop-color="#B86B00"/>
      <stop offset="0.48" stop-color="#FCA311"/>
      <stop offset="1" stop-color="#FFE08A"/>
    </linearGradient>
    <linearGradient id="z00z-gold-middle" x1="970" y1="622" x2="30" y2="372" gradientUnits="userSpaceOnUse">
      <stop offset="0" stop-color="#C77600"/>
      <stop offset="0.5" stop-color="#FCA311"/>
      <stop offset="1" stop-color="#FFD166"/>
    </linearGradient>
    <linearGradient id="z00z-gold-bottom" x1="30" y1="1000" x2="970" y2="751" gradientUnits="userSpaceOnUse">
      <stop offset="0" stop-color="#9D5900"/>
      <stop offset="0.5" stop-color="#FCA311"/>
      <stop offset="1" stop-color="#FFE6A3"/>
    </linearGradient>
    <filter id="z00z-ring-shadow" x="-8%" y="-8%" width="116%" height="116%" color-interpolation-filters="sRGB">
      <feDropShadow dx="0" dy="7" stdDeviation="6" flood-color="#9D5900" flood-opacity="0.62"/>
    </filter>
  </defs>
  <!-- Generator: Adobe Illustrator 24.0.0, SVG Export Plug-In . SVG Version: 6.00 Build 0)  -->
  <g id="base-coin">
    <svg version="1.1" id="Layer_1" xmlns="http://www.w3.org/2000/svg" xmlns:xlink="http://www.w3.org/1999/xlink" x="163" y="163"
	 viewBox="0 -43.049697 397.7 397.7" style="enable-background:new 0 0 397.7 311.7;" xml:space="preserve" width="674" height="674">
    <style type="text/css">
    	.st0{fill:url(#SVGID_1_);}
    	.st1{fill:url(#SVGID_2_);}
    	.st2{fill:url(#SVGID_3_);}
    </style>
    <linearGradient id="SVGID_1_" gradientUnits="userSpaceOnUse" x1="360.8791" y1="351.4553" x2="141.213" y2="-69.2936" gradientTransform="matrix(1 0 0 -1 0 314)">
    	<stop  offset="0" style="stop-color:#00FFA3"/>
    	<stop  offset="1" style="stop-color:#DC1FFF"/>
    </linearGradient>
    <path class="st0" d="M64.6,237.9c2.4-2.4,5.7-3.8,9.2-3.8h317.4c5.8,0,8.7,7,4.6,11.1l-62.7,62.7c-2.4,2.4-5.7,3.8-9.2,3.8H6.5
    	c-5.8,0-8.7-7-4.6-11.1L64.6,237.9z"/>
    <linearGradient id="SVGID_2_" gradientUnits="userSpaceOnUse" x1="264.8291" y1="401.6014" x2="45.163" y2="-19.1475" gradientTransform="matrix(1 0 0 -1 0 314)">
    	<stop  offset="0" style="stop-color:#00FFA3"/>
    	<stop  offset="1" style="stop-color:#DC1FFF"/>
    </linearGradient>
    <path class="st1" d="M64.6,3.8C67.1,1.4,70.4,0,73.8,0h317.4c5.8,0,8.7,7,4.6,11.1l-62.7,62.7c-2.4,2.4-5.7,3.8-9.2,3.8H6.5
    	c-5.8,0-8.7-7-4.6-11.1L64.6,3.8z"/>
    <linearGradient id="SVGID_3_" gradientUnits="userSpaceOnUse" x1="312.5484" y1="376.688" x2="92.8822" y2="-44.061" gradientTransform="matrix(1 0 0 -1 0 314)">
    	<stop  offset="0" style="stop-color:#00FFA3"/>
    	<stop  offset="1" style="stop-color:#DC1FFF"/>
    </linearGradient>
    <path class="st2" d="M333.1,120.1c-2.4-2.4-5.7-3.8-9.2-3.8H6.5c-5.8,0-8.7,7-4.6,11.1l62.7,62.7c2.4,2.4,5.7,3.8,9.2,3.8h317.4
    	c5.8,0,8.7-7,4.6-11.1L333.1,120.1z"/>
    </svg>
  </g>
  <g id="z00z-cross-chain-ring" fill="none" filter="url(#z00z-ring-shadow)">
    <circle cx="500" cy="500" r="476" stroke="url(#z00z-gold-bottom)" stroke-width="24"/>
    <circle cx="500" cy="500" r="456" stroke="url(#z00z-gold-top)" stroke-width="32"/>
    <circle cx="500" cy="500" r="486" stroke="url(#z00z-gold-middle)" stroke-width="4"/>
    <circle cx="500" cy="500" r="441" stroke="url(#z00z-gold-middle)" stroke-width="4"/>
  </g>
</svg>
