<?xml version="1.0" encoding="UTF-8"?>
<svg xmlns="http://www.w3.org/2000/svg" width="1000" height="1000" viewBox="0 0 250 250" fill="none">
  <title>Stable NFT icon</title>
  <metadata>Exact Stable symbol geometry, scaled to the original 250px icon bounds.</metadata>
  <rect width="250" height="250" fill="#00201D"/>
  <g transform="translate(27.5 27.5) scale(0.8125)">
    <path fill="#E8FAF6" d="M119.855 131.013C129.76 125.008 143.886 116.7 154.993 116.7C172.77 116.7 187.633 129.285 187.633 153.194C187.633 191.334 142.29 226.498 78.2165 211.182C78.0048 211.131 77.7973 211.292 77.7973 211.508V228.658V230.745V232.126C77.7973 232.266 77.882 232.388 78.0133 232.439C86.8466 235.742 96.1753 238.033 105.856 239.168C180.926 247.993 245.787 185.376 239.6 110.044C237.826 88.443 230.517 68.5787 218.736 51.776C218.647 51.6489 218.491 51.5685 218.27 51.6828L119.914 108.532C108.735 114.909 95.8789 122.887 84.7928 122.887C67.0161 122.887 52.1528 110.302 52.1528 86.3935C52.1528 48.2486 97.5007 13.089 161.574 28.4097C161.786 28.4605 161.989 28.3038 161.989 28.0836V7.78312C161.989 7.64338 161.904 7.51635 161.773 7.46977C148.76 2.64237 134.693 0 120.003 0C53.7281 0 0 53.7239 0 119.999C0 145.14 7.73654 168.472 20.9526 187.752C21.0542 187.896 21.249 187.943 21.4015 187.854L119.855 131.013Z"/>
  </g>
</svg>
